<svg id="Layer_1" data-name="Layer 1" xmlns="http://www.w3.org/2000/svg" viewBox="0 0 238 469.88"><defs><style>.cls-1{fill:#cb1382;}.cls-1,.cls-2{stroke:#000;stroke-miterlimit:10;stroke-width:0.25px;}.cls-2{fill:#cb187f;}</style></defs><path class="cls-1" d="M308.12,332.53c15.8,11,5.85,34.34,5.85,34.34l-27.88,29.95c-9.24,9.9-18.94,19.76-29.39,28.39-7.29,6-19.11,11.08-22,20.85-.89,3.05-.76,6.29-.62,9.46l.67,15.43a12.57,12.57,0,0,1-.36,4.58C232.53,481.24,221,484,216,486.79A107.82,107.82,0,0,0,195.87,501a77.19,77.19,0,0,0-24.14,44.58c-5.29,29.55-.62,67.14,12.9,94.18-2.28-5.73-9-11.65-12.31-17-8.58-13.71-15.42-28.79-18.76-44.67A86.83,86.83,0,0,1,168,509.1c11.58-16.31,26.17-25.52,42.15-36.63,10.91-7.58,8-15.08,7.56-26.16-.58-14.6,11.6-19.73,21.56-27,10.37-7.58,20-16.77,29.15-25.73,8.66-8.46,17.72-16.74,24.7-26.71C293.15,366.87,305.19,355.93,308.12,332.53Z" transform="translate(-151.5 -169.98)"/><path class="cls-1" d="M388.41,238.9c-5.19-30.39-30.49-57.07-59.53-66.53-33.56-10.93-67.87,19.33-55.69,54.12,12.12,34.63,48.45,57.92,72.95,83.23,7.29,7.53,32.6,31.54,33.27,28.89,5.06-20-26.73-44.09-38.17-55.42-16.5-16.33-37.58-32-51.06-50.77-10.5-14.64-8.94-38,9.37-46,24.15-10.6,45.94,13.46,58.89,30.84,9.13,12.25,21.89,31.76,30.43,44.43-.94-1.3.53-10.15.51-12.1A68.09,68.09,0,0,0,388.41,238.9Z" transform="translate(-151.5 -169.98)"/><path class="cls-1" d="M340.94,338.81s46.14,22.64,46.47,52.21,0,132.26,0,132.26-15.6,40.29-55.25,8.12-77.66,5.85-77.66,5.85,0-27.29,35.74-41.27c34.13-8.13,47.45,14.95,47.45,14.95s13,19.5,25.67.35L363,390.37s-1-30.65-22.1-51.56" transform="translate(-151.5 -169.98)"/><path class="cls-2" d="M297.23,343.87c-.45-.59,1-6,.83-7.31-.47-3.15-2-5.25-4.08-7.59-10.27-11.43-20.65-24.19-25.4-39.32-4.45-14.18-6.46-35.39,1.24-48.77,2.52-4.38.84-9.12-4.22-5s-7.28,11.43-8.87,17.27c-4.5,16.57-2,34.27,5.65,49.52C270.84,319.52,286.15,329.16,297.23,343.87Z" transform="translate(-151.5 -169.98)"/></svg>